<?xml version="1.0" standalone="no"?>
<!DOCTYPE svg PUBLIC "-//W3C//DTD SVG 20010904//EN"
 "http://www.w3.org/TR/2001/REC-SVG-20010904/DTD/svg10.dtd">
<svg version="1.0" xmlns="http://www.w3.org/2000/svg"
 width="679.000000pt" height="679.000000pt" viewBox="0 0 679.000000 679.000000"
 preserveAspectRatio="xMidYMid meet">

<g transform="translate(0.000000,679.000000) scale(0.100000,-0.100000)"
fill="#000000" stroke="none">
<path d="M2694 5481 c-13 -6 -24 -22 -28 -41 -3 -18 -6 -1249 -6 -2736 l0
-2704 200 0 200 0 0 1866 0 1867 35 33 c22 21 35 42 35 58 0 19 5 26 20 26 15
0 20 7 20 24 0 14 5 28 10 31 15 9 13 608 -2 623 -9 9 -9 15 0 24 15 15 17
618 3 634 -5 5 -11 18 -13 29 -2 11 -10 20 -18 20 -9 0 -16 12 -18 29 -2 18
-17 42 -36 60 -27 25 -34 41 -39 85 -4 30 -11 59 -17 65 -14 14 -316 19 -346
7z m393 -196 c-15 -17 -30 -4 -21 19 5 12 10 14 20 5 10 -8 11 -14 1 -24z m-3
-1477 c-4 -5 4 -4 17 2 l24 13 -24 -27 c-22 -23 -26 -24 -34 -11 -11 20 -1 49
13 40 6 -4 7 -11 4 -17z"/>
<path d="M5503 5472 c-11 -11 -13 -490 -13 -2743 l0 -2729 195 0 195 0 0 1864
c0 1670 2 1865 15 1876 10 8 12 16 6 20 -11 6 -15 29 -13 73 2 27 2 27 29 10
19 -13 28 -14 31 -5 2 6 14 12 27 12 19 0 24 7 29 40 10 62 11 1279 1 1289 -3
2 -5 15 -5 28 0 16 -6 23 -20 23 -21 0 -46 42 -28 48 5 2 4 10 -3 18 -15 18
-35 19 -22 2 7 -9 3 -25 -12 -51 l-22 -38 -6 42 c-3 23 -1 53 4 68 7 17 7 27
0 29 -6 2 -11 27 -11 55 0 84 4 82 -191 82 -130 0 -176 -3 -186 -13z m358 -98
c4 -10 7 -158 6 -329 l-1 -310 -6 250 c-4 138 -7 250 -8 250 -1 0 -68 1 -150
2 -164 3 -182 0 -182 -28 0 -10 -5 -19 -11 -19 -12 0 -9 175 3 195 4 6 72 10
174 9 156 0 168 -1 175 -20z m138 -456 c-1 -97 -3 -107 -10 -68 -9 40 -3 180
7 180 2 0 4 -51 3 -112z m-132 -901 c-1 -116 -2 -21 -2 213 0 234 1 329 2 212
2 -116 2 -308 0 -425z m130 141 c-2 -24 -4 -5 -4 42 0 47 2 66 4 43 2 -24 2
-62 0 -85z m-130 -2201 c-1 -336 -2 -61 -2 613 0 674 1 949 2 613 2 -337 2
-889 0 -1226z m-360 151 c-1 -200 -2 -37 -2 362 0 399 1 562 2 363 2 -200 2
-526 0 -725z m360 -1060 c-2 -13 -4 -3 -4 22 0 25 2 35 4 23 2 -13 2 -33 0
-45z"/>
<path d="M790 5461 c-7 -14 -10 -864 -10 -2740 l0 -2721 195 0 195 0 0 1853
c0 1584 2 1856 14 1879 9 16 11 30 5 33 -10 7 -13 95 -3 95 3 0 12 -7 20 -15
18 -17 34 -20 34 -5 0 6 11 10 24 10 20 0 24 6 30 42 4 24 6 183 5 355 0 171
1 316 5 321 10 16 6 601 -4 607 -6 3 -10 17 -10 31 0 18 -5 24 -21 24 -13 0
-23 8 -26 21 -4 12 -11 18 -20 15 -8 -3 -17 -6 -19 -6 -2 0 -4 -11 -4 -25 0
-14 -5 -25 -11 -25 -6 0 -10 27 -10 73 1 39 -2 99 -6 132 l-8 60 -182 3 c-172
2 -183 1 -193 -17z m35 -61 c8 -13 285 -13 305 0 21 13 28 -11 29 -98 1 -46
-3 -71 -9 -67 -5 3 -10 14 -10 25 0 17 -9 18 -147 14 -82 -2 -156 -3 -165 -4
-10 0 -18 -10 -21 -27 -2 -16 -5 16 -6 70 -1 88 6 115 24 87z m462 -557 c-1
-43 -3 -10 -3 72 0 83 2 118 3 78 2 -40 2 -107 0 -150z m0 -690 c-2 -32 -3 -8
-3 52 0 61 1 87 3 58 2 -29 2 -78 0 -110z"/>
<path d="M3613 5468 c-13 -20 -15 -5468 -3 -5468 8 0 10 523 9 1753 -2 2103 2
3011 11 2702 4 -115 8 -352 10 -525 1 -173 6 -394 9 -490 l7 -175 4 245 c2
135 6 201 7 148 2 -55 8 -98 13 -98 6 0 8 22 4 55 l-7 55 42 0 41 0 0 39 c0
22 -5 41 -12 43 -9 3 -9 6 0 12 7 4 12 2 12 -3 0 -6 18 -11 39 -11 40 0 40 0
44 43 l4 42 1 -42 c1 -31 6 -43 17 -43 12 0 15 -14 15 -62 0 -43 3 -58 10 -48
8 13 9 13 14 0 2 -8 7 -22 9 -30 3 -8 6 3 8 25 l2 40 7 -45 7 -45 1 42 c1 23
7 43 13 45 8 3 13 148 17 496 3 271 9 492 14 492 4 0 9 -1050 10 -2332 l3
-2333 5 2007 c3 1103 8 2010 13 2014 4 4 7 -9 7 -29 0 -42 21 -117 32 -117 5
0 8 6 9 13 0 6 4 2 9 -10 13 -31 40 -30 40 1 0 14 5 28 10 31 15 9 13 608 -2
623 -9 9 -9 15 0 24 15 15 17 628 2 628 -5 0 -10 11 -10 25 0 18 -6 25 -20 27
-11 0 -25 1 -32 2 -15 1 -37 -83 -39 -149 -3 -87 -17 84 -18 215 0 63 -4 129
-9 145 l-8 30 -181 3 c-138 2 -184 -1 -190 -10z m196 -21 c90 -1 151 2 151 8
0 5 6 3 13 -3 16 -17 24 -712 8 -712 -8 0 -11 58 -11 183 0 100 -3 191 -6 202
-5 19 -10 20 -77 14 -40 -4 -111 -5 -159 -2 -88 6 -88 6 -89 -18 -1 -13 -5
-107 -8 -209 -7 -166 -8 -148 -9 176 -1 198 1 363 4 367 3 3 12 3 19 1 7 -3
80 -6 164 -7z m310 -537 c1 -244 -10 -277 -35 -108 -4 21 -10 35 -16 32 -5 -4
-8 52 -7 146 1 92 5 147 11 138 7 -10 11 -9 20 7 11 19 11 19 19 0 4 -11 8
-108 8 -215z m-102 58 c-2 -13 -4 -3 -4 22 0 25 2 35 4 23 2 -13 2 -33 0 -45z
m4 -547 c-6 -58 -8 -13 -8 189 l0 265 9 -189 c4 -107 4 -222 -1 -265z m46 222
c-2 -16 -4 -5 -4 22 0 28 2 40 4 28 2 -13 2 -35 0 -50z m52 -434 c1 -53 -2
-125 -6 -160 l-8 -64 -8 55 c-17 107 -19 233 -5 294 l13 60 7 -44 c3 -25 7
-88 7 -141z m-52 -36 c-2 -16 -4 -3 -4 27 0 30 2 43 4 28 2 -16 2 -40 0 -55z
m-140 -415 c-3 -8 -6 -5 -6 6 -1 11 2 17 5 13 3 -3 4 -12 1 -19z m-17 -48 c0
-22 -4 -40 -10 -40 -5 0 -10 18 -10 40 0 22 5 40 10 40 6 0 10 -18 10 -40z"/>
<path d="M1214 5301 c11 -11 23 -21 28 -21 14 0 -1 19 -25 31 -22 12 -22 12
-3 -10z"/>
<path d="M2240 5173 c0 -5 -1 -144 -2 -311 -2 -166 0 -302 5 -302 4 0 7 140 7
310 0 171 -2 310 -5 310 -3 0 -5 -3 -5 -7z"/>
<path d="M5060 4875 c-3 -170 -4 -312 -2 -314 10 -18 12 44 10 315 l-3 309 -5
-310z"/>
<path d="M2200 4529 c0 -23 4 -30 14 -26 20 8 31 -195 23 -420 -4 -106 -2
-173 4 -173 5 0 9 120 9 305 0 264 -2 305 -15 305 -8 0 -15 9 -15 20 0 11 -4
20 -10 20 -5 0 -10 -14 -10 -31z"/>
<path d="M5026 4553 c-9 -10 -7 -63 3 -63 5 0 11 6 14 13 12 32 18 -102 15
-340 -2 -143 0 -259 5 -256 11 7 9 613 -3 613 -5 0 -10 6 -10 14 0 17 -14 28
-24 19z"/>
<path d="M2200 3878 c0 -16 4 -28 9 -28 18 0 20 17 6 36 -14 18 -14 18 -15 -8z"/>
<path d="M5020 3875 c0 -16 6 -25 15 -25 8 0 15 9 15 19 0 10 -7 21 -15 25
-11 4 -15 -1 -15 -19z"/>
<path d="M3952 3570 c0 -14 2 -19 5 -12 2 6 2 18 0 25 -3 6 -5 1 -5 -13z"/>
<path d="M3943 3390 c0 -25 2 -35 4 -22 2 12 2 32 0 45 -2 12 -4 2 -4 -23z"/>
<path d="M3766 3251 c-4 -5 3 -7 14 -4 23 6 26 13 6 13 -8 0 -17 -4 -20 -9z"/>
<path d="M3778 3204 c-16 -8 -28 -20 -28 -27 0 -9 2 -9 8 0 14 22 61 27 82 8
19 -17 20 -34 20 -420 0 -456 -1 -465 -66 -465 -28 0 -36 5 -44 25 -5 14 -8
194 -7 429 1 268 -1 399 -8 388 -11 -19 -21 -763 -11 -818 9 -44 44 -61 87
-42 16 7 29 16 29 20 0 5 6 8 13 8 8 0 18 25 26 60 17 75 10 785 -8 818 -18
34 -50 40 -93 16z"/>
<path d="M3895 3150 c3 -5 8 -10 11 -10 2 0 4 5 4 10 0 6 -5 10 -11 10 -5 0
-7 -4 -4 -10z"/>
<path d="M3696 3105 c8 -37 14 -45 14 -19 0 10 -5 26 -10 34 -8 11 -9 7 -4
-15z"/>
<path d="M3651 2633 c0 -50 3 -83 9 -83 11 0 12 43 0 115 -7 47 -7 45 -9 -32z"/>
<path d="M3901 2694 c0 -11 3 -14 6 -6 3 7 2 16 -1 19 -3 4 -6 -2 -5 -13z"/>
<path d="M3906 2473 c2 -101 0 -163 -6 -163 -6 0 -11 8 -11 18 -1 9 -5 -1 -8
-23 -4 -28 -13 -43 -28 -50 -30 -13 -29 -25 2 -25 27 0 32 -9 13 -28 -16 -16
-28 -15 -28 3 0 11 -11 15 -40 15 -23 0 -40 5 -40 11 0 6 9 9 20 6 11 -3 20
-2 20 2 0 5 10 13 23 19 l22 11 -22 0 c-13 1 -23 -3 -23 -9 0 -5 -7 -10 -15
-10 -8 0 -15 5 -15 11 0 8 -14 10 -39 6 -38 -5 -39 -5 -26 20 13 24 8 64 -11
94 -4 7 -3 9 3 6 5 -4 8 6 5 24 -2 16 -8 29 -12 29 -5 0 -11 17 -15 38 -3 20
-10 44 -15 52 -14 22 -14 31 -25 -1478 l-8 -1052 173 0 173 0 -6 1118 c-7
1156 -14 1512 -29 1512 -4 0 -9 -46 -9 -102 l-2 -103 -8 90 c-14 141 -16 132
-13 -42z m-239 -125 c-2 -24 -4 -5 -4 42 0 47 2 66 4 43 2 -24 2 -62 0 -85z
m270 -20 c-2 -13 -4 -3 -4 22 0 25 2 35 4 23 2 -13 2 -33 0 -45z m-233 -4 c5
-14 4 -15 -9 -4 -17 14 -19 20 -6 20 5 0 12 -7 15 -16z m46 -84 c0 -5 -7 -10
-15 -10 -8 0 -15 5 -15 10 0 6 7 10 15 10 8 0 15 -4 15 -10z"/>
</g>
</svg>
