<?xml version="1.0" standalone="no"?>
<!DOCTYPE svg PUBLIC "-//W3C//DTD SVG 20010904//EN"
 "http://www.w3.org/TR/2001/REC-SVG-20010904/DTD/svg10.dtd">
<svg version="1.0" xmlns="http://www.w3.org/2000/svg"
 width="480.000000pt" height="640.000000pt" viewBox="0 0 480.000000 640.000000"
 preserveAspectRatio="xMidYMid meet">

<g transform="translate(0.000000,640.000000) scale(0.100000,-0.100000)"
fill="#000000" stroke="none">
<path d="M415 6351 c-170 -42 -289 -157 -343 -333 -14 -46 -16 -138 -19 -690
-3 -384 -8 -638 -13 -638 -6 0 -10 -168 -10 -420 0 -260 4 -420 10 -420 6 0
11 -628 12 -1697 3 -1592 4 -1702 21 -1757 53 -176 164 -283 347 -333 61 -17
177 -18 1980 -18 l1915 0 79 23 c170 48 287 166 335 341 13 49 16 260 18 1749
2 1049 7 1692 13 1692 6 0 9 163 8 420 -1 231 -5 420 -9 420 -4 0 -9 285 -11
633 -4 554 -6 639 -21 690 -55 187 -177 303 -365 342 -57 12 -357 15 -1972 14
-1769 0 -1910 -2 -1975 -18z m2123 -153 c5 -7 13 -40 17 -73 10 -79 36 -129
86 -162 l40 -27 340 -6 c219 -4 343 -10 350 -17 6 -6 9 -40 7 -82 -3 -62 -1
-71 15 -71 15 0 17 -10 17 -80 0 -64 3 -80 15 -80 12 0 15 -15 15 -72 0 -49 5
-77 15 -88 12 -13 14 -58 15 -245 1 -338 2 -315 -16 -315 -12 0 -15 -9 -14
-37 6 -117 0 -203 -14 -203 -9 0 -12 -7 -9 -18 9 -36 -15 -165 -37 -194 -16
-21 -21 -42 -20 -76 3 -71 1 -84 -10 -77 -5 3 -12 -7 -16 -22 -3 -15 -10 -39
-15 -53 -9 -26 -10 -33 -9 -108 1 -29 -4 -44 -15 -48 -10 -4 -15 -20 -15 -49
0 -24 -5 -45 -11 -47 -6 -2 -15 -42 -21 -88 -5 -47 -14 -94 -19 -105 -5 -11
-11 -41 -13 -67 -2 -25 -7 -56 -11 -67 -4 -12 -2 -21 4 -21 7 0 7 -9 -1 -27
-12 -32 -16 -61 -23 -197 -2 -54 -7 -101 -9 -104 -15 -14 113 -148 734 -767
l681 -680 -3 -680 c-3 -679 -3 -680 -26 -736 -46 -113 -133 -180 -262 -198
-36 -5 -157 -8 -270 -6 -113 2 -311 4 -440 5 -129 2 -215 6 -190 9 39 5 42 7
20 13 -14 4 -35 8 -47 8 -25 0 -26 1 -17 24 4 11 19 16 44 16 33 0 39 3 37 20
-1 17 -8 20 -45 20 l-44 0 7 160 c6 116 4 160 -4 160 -6 0 -11 17 -11 40 0 38
-2 40 -30 40 -28 0 -30 2 -30 39 0 31 4 41 21 46 15 5 19 12 15 28 -3 12 -6
32 -6 45 0 13 -6 22 -15 22 -10 0 -15 10 -15 30 0 23 -4 30 -20 30 -17 0 -20
7 -20 40 0 33 -3 40 -20 40 -18 0 -20 7 -20 55 0 48 -4 58 -30 83 -26 26 -30
36 -30 86 0 31 -4 56 -10 56 -15 0 -12 40 3 41 10 0 10 2 0 6 -7 2 -13 20 -13
38 0 35 -14 55 -23 33 -4 -8 -6 -7 -6 4 -1 9 -12 25 -26 36 -28 22 -33 42 -10
42 18 0 20 19 2 25 -8 4 -12 36 -13 107 -1 67 -5 103 -13 106 -8 3 -11 52 -11
163 0 99 -4 159 -10 159 -16 0 -13 147 4 153 10 4 11 17 6 51 -5 36 -3 52 11
73 11 16 16 36 13 46 -3 10 2 27 11 37 9 10 19 38 22 62 3 24 14 54 24 67 11
13 19 34 19 47 0 13 4 24 9 24 5 0 14 15 21 33 6 17 25 61 40 97 38 86 58 185
53 273 -4 105 -5 108 -40 157 -17 25 -335 348 -707 719 l-676 673 0 654 c0
445 4 670 11 706 28 133 109 217 236 247 62 15 459 13 471 -1z m-1207 -141
c43 -29 59 -60 59 -120 0 -40 -5 -53 -33 -83 -41 -45 -110 -58 -163 -29 -43
23 -79 93 -70 138 20 98 127 148 207 94z m-1136 -496 c0 -278 -3 -404 -10
-393 -19 32 -12 802 8 802 1 0 2 -184 2 -409z m1362 237 c-2 -24 -4 -5 -4 42
0 47 2 66 4 43 2 -24 2 -62 0 -85z m1870 -155 c-2 -21 -4 -4 -4 37 0 41 2 58
4 38 2 -21 2 -55 0 -75z m-1870 -25 c-2 -13 -4 -3 -4 22 0 25 2 35 4 23 2 -13
2 -33 0 -45z m0 -195 c-2 -21 -4 -6 -4 32 0 39 2 55 4 38 2 -18 2 -50 0 -70z
m-1019 -205 c17 -17 15 -48 -3 -48 -8 0 -15 -4 -15 -10 0 -19 -39 -10 -50 11
-21 38 37 78 68 47z m1139 -975 c-2 -21 -4 -6 -4 32 0 39 2 55 4 38 2 -18 2
-50 0 -70z m-17 -617 c0 -51 -16 -86 -40 -86 -27 0 -27 43 0 88 25 41 40 41
40 -2z m-114 -116 c33 -11 68 -17 84 -13 27 5 28 4 26 -28 -2 -19 -4 -142 -5
-274 l-1 -241 -36 -2 c-20 -2 -52 -9 -71 -17 -59 -25 -89 -19 -137 25 -113
104 -169 330 -111 446 31 62 61 91 112 109 52 19 74 18 139 -5z m131 -12 c-3
-7 -5 -2 -5 12 0 14 2 19 5 13 2 -7 2 -19 0 -25z m0 -190 c-2 -13 -4 -5 -4 17
-1 22 1 32 4 23 2 -10 2 -28 0 -40z m0 -140 c-3 -7 -5 -2 -5 12 0 14 2 19 5
13 2 -7 2 -19 0 -25z m0 -115 c-2 -16 -4 -5 -4 22 0 28 2 40 4 28 2 -13 2 -35
0 -50z m0 -145 c-3 -7 -5 -2 -5 12 0 14 2 19 5 13 2 -7 2 -19 0 -25z m0 -521
c-1 -89 -3 -13 -3 168 0 182 2 254 3 162 2 -93 2 -241 0 -330z"/>
<path d="M3338 803 c7 -3 16 -2 19 1 4 3 -2 6 -13 5 -11 0 -14 -3 -6 -6z"/>
</g>
</svg>
