<?xml version="1.0" standalone="no"?>
<!DOCTYPE svg PUBLIC "-//W3C//DTD SVG 20010904//EN"
 "http://www.w3.org/TR/2001/REC-SVG-20010904/DTD/svg10.dtd">
<svg version="1.0" xmlns="http://www.w3.org/2000/svg"
 width="679.000000pt" height="679.000000pt" viewBox="0 0 679.000000 679.000000"
 preserveAspectRatio="xMidYMid meet">

<g transform="translate(0.000000,679.000000) scale(0.100000,-0.100000)"
fill="#000000" stroke="none">
<path d="M2276 6059 c-159 -44 -200 -79 -248 -210 l-23 -64 0 -2405 c0 -2247
1 -2409 17 -2467 35 -128 93 -207 185 -254 l48 -24 1166 -3 1166 -2 54 28 c38
20 63 42 86 77 67 101 63 -18 63 2112 0 1667 -2 1936 -15 1991 -28 117 -84
202 -162 244 -29 16 -167 56 -353 103 -168 42 -308 79 -312 83 -4 4 -14 51
-22 106 -24 163 -104 295 -209 344 -69 32 -97 40 -587 177 -85 23 -249 70
-363 104 -194 56 -339 92 -369 90 -7 0 -62 -14 -122 -30z m-37 -90 c-6 -12
-19 -45 -29 -73 -18 -50 -19 -51 -19 -16 -1 26 -4 31 -11 20 -5 -8 -10 -12
-10 -8 0 3 -27 -2 -60 -12 -42 -13 -60 -15 -60 -7 0 23 39 76 57 77 71 4 96 9
111 24 23 23 35 20 21 -5z m376 -44 c71 -20 134 -40 141 -46 6 -5 14 -34 17
-64 7 -66 32 -122 67 -147 14 -9 77 -31 140 -48 136 -36 221 -61 235 -68 5 -4
-1 -9 -15 -13 l-25 -7 25 -1 c20 -1 22 -3 10 -11 -13 -8 -12 -10 3 -10 11 0
17 -8 17 -22 0 -17 -3 -19 -9 -10 -6 10 -10 8 -14 -8 -7 -27 1 -50 18 -50 8 0
11 -8 8 -20 -3 -11 -9 -20 -14 -20 -20 0 -7 -30 14 -31 20 -1 20 -2 2 -6 -11
-3 -34 -16 -52 -29 -17 -13 -35 -24 -39 -24 -4 0 1 7 12 15 22 17 12 20 -16 5
-11 -6 -17 -17 -14 -24 3 -8 -4 -28 -16 -44 -12 -16 -23 -44 -26 -63 -10 -77
-15 -99 -22 -95 -6 4 -6 -1181 0 -1570 3 -148 2 -159 -13 -140 -9 12 -76 118
-149 236 -74 118 -222 355 -329 525 -107 171 -216 345 -243 387 l-48 78 0 563
c0 364 4 584 11 622 21 117 73 175 154 175 22 0 98 -16 170 -35z m663 -392
c-10 -2 -26 -2 -35 0 -10 3 -2 5 17 5 19 0 27 -2 18 -5z m85 -20 c-7 -2 -19
-2 -25 0 -7 3 -2 5 12 5 14 0 19 -2 13 -5z m210 -190 c-7 -2 -19 -2 -25 0 -7
3 -2 5 12 5 14 0 19 -2 13 -5z m74 -19 c-3 -3 -12 -4 -19 -1 -8 3 -5 6 6 6 11
1 17 -2 13 -5z m-359 -68 c-18 -49 -23 -55 -30 -37 -9 25 -11 25 -46 7 -15 -7
-42 -16 -60 -19 -30 -6 -33 -5 -30 15 5 33 49 59 109 64 35 2 56 8 62 19 18
33 16 7 -5 -49z m439 48 c-3 -3 -12 -4 -19 -1 -8 3 -5 6 6 6 11 1 17 -2 13 -5z
m-347 -155 c-6 -18 -10 -153 -10 -299 0 -255 4 -294 36 -420 l6 -25 -15 26
c-37 67 -45 123 -50 334 -5 201 5 351 24 403 14 36 20 22 9 -19z m579 -73 c45
-48 48 -144 6 -172 -66 -43 -139 77 -99 161 20 43 59 48 93 11z m-1772 -1153
c-1 -175 -2 -34 -2 312 0 347 1 490 2 318 2 -171 2 -455 0 -630z m-80 705 c-3
-8 -6 -5 -6 6 -1 11 2 17 5 13 3 -3 4 -12 1 -19z m1461 -130 c-2 -6 -10 -14
-16 -16 -7 -2 -10 2 -6 12 7 18 28 22 22 4z m-1461 -220 c-3 -8 -6 -5 -6 6 -1
11 2 17 5 13 3 -3 4 -12 1 -19z m1150 -706 c-1 -125 -2 -22 -2 228 0 250 1
353 2 227 2 -125 2 -329 0 -455z m-72 578 c3 -5 1 -10 -4 -10 -6 0 -11 5 -11
10 0 6 2 10 4 10 3 0 8 -4 11 -10z m-1078 -402 c-3 -8 -6 -5 -6 6 -1 11 2 17
5 13 3 -3 4 -12 1 -19z m1078 -178 c3 -5 1 -10 -4 -10 -6 0 -11 5 -11 10 0 6
2 10 4 10 3 0 8 -4 11 -10z m960 -250 c11 -18 -15 -89 -42 -109 -35 -28 -43
-26 -43 10 0 37 15 68 44 91 24 20 32 22 41 8z m-110 -135 c14 -11 32 -13 67
-9 80 11 127 -37 91 -92 -26 -40 -23 -120 6 -169 28 -48 23 -86 -19 -144 -31
-43 -37 -46 -57 -33 -9 6 -123 425 -123 454 0 12 13 9 35 -7z m-976 -872 c-2
-405 -3 -444 -10 -289 -5 99 -13 184 -19 190 -13 13 -13 119 0 111 6 -4 11 40
12 122 2 70 3 151 4 178 1 28 2 74 3 103 0 28 3 52 6 52 3 0 4 -210 4 -467z
m-887 -1533 c-15 -14 -22 -16 -26 -7 -3 9 -7 9 -13 -1 -7 -10 -13 -8 -27 7
-17 18 -17 19 3 26 12 3 25 3 31 0 6 -3 13 1 16 9 5 14 8 14 21 0 14 -14 13
-17 -5 -34z m1068 16 c0 -17 -42 -32 -59 -21 -6 3 -11 1 -11 -5 0 -17 -17 -3
-22 18 -5 16 2 19 43 21 38 2 49 -1 49 -13z"/>
<path d="M3148 5543 c7 -3 16 -2 19 1 4 3 -2 6 -13 5 -11 0 -14 -3 -6 -6z"/>
</g>
</svg>
